<?xml version="1.0" standalone="no"?>
<!DOCTYPE svg PUBLIC "-//W3C//DTD SVG 20010904//EN"
 "http://www.w3.org/TR/2001/REC-SVG-20010904/DTD/svg10.dtd">
<svg version="1.0" xmlns="http://www.w3.org/2000/svg"
 width="700.000000pt" height="700.000000pt" viewBox="0 0 700.000000 700.000000"
 preserveAspectRatio="xMidYMid meet">
<metadata>
Created by potrace 1.14, written by Peter Selinger 2001-2017
</metadata>
<g transform="translate(0.000000,700.000000) scale(0.100000,-0.100000)"
fill="#000000" stroke="none">
<path d="M3377 6974 c-1 -1 -51 -4 -112 -8 -60 -3 -124 -8 -140 -10 -17 -3
-53 -7 -80 -10 -28 -3 -75 -10 -105 -16 -30 -5 -71 -12 -90 -15 -169 -28 -471
-118 -673 -201 -587 -240 -1136 -675 -1504 -1191 -37 -53 -70 -101 -73 -107
-3 -6 -26 -44 -53 -84 -26 -40 -47 -75 -47 -78 0 -3 -9 -18 -20 -33 -21 -30
-121 -228 -165 -326 -57 -129 -154 -407 -180 -520 -2 -11 -13 -59 -24 -106
-28 -121 -51 -255 -67 -394 -22 -200 -22 -637 1 -750 2 -11 6 -45 9 -75 5 -46
26 -173 51 -295 33 -163 122 -441 196 -615 45 -105 159 -326 223 -434 199
-332 490 -664 794 -907 135 -109 246 -189 261 -189 5 0 14 -7 21 -15 15 -18
194 -123 330 -193 183 -94 438 -194 620 -243 209 -57 436 -100 607 -115 37 -3
86 -7 108 -10 62 -6 391 -5 480 1 74 5 277 30 335 41 14 2 41 7 60 10 150 23
460 114 656 192 830 332 1523 1002 1878 1817 26 61 54 124 62 142 40 90 150
463 168 570 58 345 61 376 61 698 0 226 -4 314 -19 425 -2 14 -7 50 -11 80 -4
30 -8 57 -10 60 -2 3 -6 30 -10 60 -4 30 -9 58 -11 61 -2 3 -6 21 -9 40 -3 19
-17 78 -31 132 -187 742 -634 1419 -1249 1893 -362 280 -809 498 -1246 609
-118 31 -131 33 -179 41 -19 3 -42 7 -50 9 -8 3 -33 7 -55 10 -22 3 -49 7 -60
10 -11 2 -42 7 -70 10 -27 3 -63 8 -80 10 -92 12 -487 28 -498 19z"/>
</g>
</svg>
